<svg width="1080" height="1080" viewBox="0 0 1080 1080" fill="none" xmlns="http://www.w3.org/2000/svg">
<path fill-rule="evenodd" clip-rule="evenodd" d="M540 199C346.682 199 190 355.607 190 548.832C190 703.369 290.256 834.512 429.357 880.81C446.868 883.967 453.184 873.199 453.184 863.94C453.184 855.627 452.904 833.6 452.798 804.454C355.42 825.568 334.857 757.524 334.857 757.524C318.995 717.118 296.011 706.351 296.011 706.351C264.253 684.64 298.432 685.131 298.432 685.131C333.593 687.586 352.016 721.187 352.016 721.187C383.247 774.64 433.989 759.208 453.851 750.264C457.044 727.641 466.168 712.208 476.134 703.474C398.442 694.671 316.75 664.647 316.75 530.558C316.75 492.432 330.4 461.146 352.683 436.734C349.139 427.86 337.032 392.26 356.157 344.138C356.157 344.138 385.528 334.703 452.377 379.949C480.927 372.186 510.377 368.223 539.965 368.164C569.553 368.212 599.005 372.174 627.553 379.949C694.437 334.668 723.773 344.138 723.773 344.138C742.898 392.26 730.896 427.86 727.247 436.734C749.705 461.146 763.18 492.397 763.18 530.558C763.18 664.998 681.418 694.531 603.445 703.194C615.902 713.997 627.132 735.322 627.132 767.941C627.132 814.73 626.71 852.47 626.71 863.94C626.71 873.305 632.957 884.178 650.818 880.74C789.85 834.372 890 703.334 890 548.832C890 355.607 733.318 199 540 199Z" fill="white"/>
</svg>
