<svg width="1080" height="1080" viewBox="0 0 1080 1080" fill="none" xmlns="http://www.w3.org/2000/svg">
<path d="M890 322.5C864.258 333.907 836.604 341.614 807.533 345.098C837.529 327.149 859.971 298.9 870.67 265.621C842.488 282.361 811.644 294.144 779.479 300.458C757.848 277.363 729.199 262.055 697.977 256.911C666.756 251.767 634.709 257.075 606.813 272.01C578.918 286.946 556.733 310.673 543.704 339.509C530.675 368.344 527.531 400.675 534.759 431.48C477.654 428.613 421.791 413.771 370.793 387.916C319.796 362.062 274.805 325.773 238.74 281.405C226.409 302.677 219.318 327.34 219.318 353.607C219.304 377.252 225.127 400.536 236.27 421.391C247.413 442.246 263.532 460.029 283.196 473.161C260.391 472.435 238.089 466.273 218.147 455.188V457.037C218.144 490.201 229.616 522.345 250.615 548.013C271.614 573.682 300.847 591.295 333.354 597.864C312.199 603.589 290.019 604.432 268.49 600.33C277.662 628.866 295.527 653.819 319.585 671.697C343.643 689.574 372.689 699.481 402.657 700.031C351.785 739.967 288.957 761.629 224.282 761.534C212.825 761.537 201.378 760.868 190 759.53C255.649 801.74 332.07 824.142 410.118 824.055C674.321 824.055 818.755 605.232 818.755 415.449C818.755 409.284 818.6 403.056 818.323 396.89C846.417 376.573 870.668 351.415 889.938 322.593L890 322.5V322.5Z" fill="white"/>
</svg>
