<svg width="831" height="90" viewBox="0 0 831 90" fill="none" xmlns="http://www.w3.org/2000/svg">
<path d="M150 26.52L174.84 87.72H188.88L213.72 26.52H197.64L181.92 68.64L166.08 26.52H150Z" fill="white"/>
<path d="M222.744 87.72H238.344V26.52H222.744V87.72ZM230.424 0C225.264 0 221.424 3.6 221.424 8.75999C221.424 13.92 225.264 17.64 230.424 17.64C235.344 17.64 239.424 13.92 239.424 8.75999C239.424 3.6 235.344 0 230.424 0Z" fill="white"/>
<path d="M275.703 89.16C289.863 89.16 299.583 81.24 299.583 70.92C299.583 59.76 291.543 55.68 279.903 51.48C270.423 48.12 267.183 46.44 267.183 43.2C267.183 39.84 270.903 37.56 275.823 37.56C281.583 37.56 285.423 40.56 287.943 44.76L298.383 37.2C294.423 29.88 286.143 25.08 276.063 25.08C262.863 25.08 252.543 32.76 252.543 43.32C252.543 53.4 259.263 58.32 271.743 62.52C281.703 65.88 284.943 67.44 284.943 71.28C284.943 74.52 281.463 76.56 275.703 76.56C269.103 76.56 264.423 72.84 261.063 67.56L250.503 75.36C255.183 84 264.663 89.16 275.703 89.16Z" fill="white"/>
<path d="M312.627 87.72H328.227V26.52H312.627V87.72ZM320.307 0C315.147 0 311.307 3.6 311.307 8.75999C311.307 13.92 315.147 17.64 320.307 17.64C325.227 17.64 329.307 13.92 329.307 8.75999C329.307 3.6 325.227 0 320.307 0Z" fill="white"/>
<path d="M373.746 25.08C355.146 25.08 341.346 39.12 341.346 57.12C341.346 75.12 355.146 89.16 373.746 89.16C392.586 89.16 406.146 75.12 406.146 57.12C406.146 39.12 392.586 25.08 373.746 25.08ZM373.746 39.24C383.346 39.24 390.306 47.04 390.306 57.12C390.306 67.2 383.346 75 373.746 75C364.146 75 357.186 67.2 357.186 57.12C357.186 47.04 364.146 39.24 373.746 39.24Z" fill="white"/>
<path d="M419.268 26.52V87.72H434.868V56.16C434.868 47.76 439.188 39 448.908 39C456.108 39 461.268 43.68 461.268 52.44V87.72H476.868V50.64C476.868 34.44 467.508 25.08 453.108 25.08C444.108 25.08 438.108 28.56 434.268 34.92V26.52H419.268Z" fill="white"/>
<path d="M513.122 89.16C524.762 89.16 533.282 82.08 533.282 72.48C533.282 61.92 523.082 58.32 513.602 55.2C505.562 52.32 498.002 49.8 498.002 42.6C498.002 34.8 504.962 31.2 512.642 31.2C517.922 31.2 521.522 33.24 524.282 35.64C525.722 36.96 526.922 38.52 528.002 40.2L531.962 36.96C530.762 34.92 529.322 33.12 527.522 31.56C524.282 29.04 519.602 26.28 512.882 26.28C501.962 26.28 492.722 32.28 492.722 42.96C492.722 53.16 502.562 56.64 511.682 59.76C520.082 62.64 528.122 65.04 528.122 72.48C528.122 79.92 521.042 84.24 513.242 84.24C507.002 84.24 502.682 82.2 499.322 79.44C497.522 78.12 495.962 76.56 494.642 74.76L491.042 78.24C492.362 80.28 494.162 82.08 496.322 83.64C499.802 86.52 505.322 89.16 513.122 89.16Z" fill="white"/>
<path d="M555.346 32.4V71.64C555.346 83.04 562.426 89.16 571.666 89.16C574.066 89.16 576.706 88.68 579.586 87.84V82.56C577.186 83.88 574.906 84.12 572.626 84.12C565.786 84.12 560.506 80.16 560.506 71.52V32.4H576.226V27.72H560.506V11.04H555.346V27.72H545.866V32.4H555.346Z" fill="white"/>
<path d="M595.097 27.72V65.28C595.097 79.08 604.577 89.16 617.537 89.16C627.977 89.16 636.137 83.76 640.337 74.52V87.72H645.137V27.72H640.097V59.88C640.097 73.68 630.617 84.24 618.497 84.24C607.457 84.24 600.137 76.56 600.137 65.04V27.72H595.097Z" fill="white"/>
<path d="M694.028 84.24C680.228 84.24 669.667 72.72 669.667 57.72C669.667 42.84 680.228 31.2 694.028 31.2C705.908 31.2 717.667 39.24 717.667 57.84C717.667 76.44 705.908 84.24 694.028 84.24ZM717.307 87.72H722.107V3.72H717.068V39.6C712.748 31.08 703.507 26.28 693.307 26.28C677.467 26.28 664.388 40.2 664.388 57.84C664.388 75.36 677.467 89.16 693.307 89.16C703.987 89.16 712.627 84 717.307 75.84V87.72Z" fill="white"/>
<path d="M743.662 7.92C743.662 10.44 745.583 12.48 748.343 12.48C750.863 12.48 753.023 10.44 753.023 7.92C753.023 5.16 750.863 3.12 748.343 3.12C745.583 3.12 743.662 5.16 743.662 7.92ZM745.823 87.72H750.862V27.72H745.823V87.72Z" fill="white"/>
<path d="M800.451 26.28C782.811 26.28 769.971 40.44 769.971 57.72C769.971 75 782.811 89.16 800.451 89.16C818.091 89.16 830.931 75 830.931 57.72C830.931 40.44 818.091 26.28 800.451 26.28ZM800.451 31.2C815.211 31.2 825.651 43.32 825.651 57.72C825.651 72.12 815.211 84.24 800.451 84.24C785.691 84.24 775.251 72.12 775.251 57.72C775.251 43.32 785.691 31.2 800.451 31.2Z" fill="white"/>
<path d="M46.3321 87.8743L110 1.00001L44 46.0282L-5.59992e-06 23.5141L41.844 87.7468C42.8964 89.3624 45.1937 89.4276 46.3321 87.8743Z" fill="url(#paint0_linear_228_6)"/>
<defs>
<linearGradient id="paint0_linear_228_6" x1="19.5" y1="81.5" x2="110" y2="1.00001" gradientUnits="userSpaceOnUse">
<stop stop-color="#D312DE"/>
<stop offset="1" stop-color="#0E43CD"/>
</linearGradient>
</defs>
</svg>
