<svg width="1080" height="1080" viewBox="0 0 1080 1080" fill="none" xmlns="http://www.w3.org/2000/svg">
<path fill-rule="evenodd" clip-rule="evenodd" d="M699.937 609.476C691.245 605.13 648.633 584.188 640.699 581.271C632.766 578.384 626.991 576.955 621.187 585.646C615.412 594.28 598.816 613.821 593.77 619.596C588.695 625.4 583.649 626.1 574.987 621.784C566.324 617.409 538.383 608.28 505.279 578.763C479.525 555.78 462.112 527.401 457.066 518.709C452.02 510.047 456.512 505.351 460.858 501.034C464.766 497.155 469.52 490.913 473.866 485.867C478.212 480.792 479.641 477.176 482.529 471.372C485.445 465.597 483.987 460.551 481.8 456.205C479.641 451.859 462.316 409.188 455.083 391.834C448.054 374.947 440.908 377.251 435.6 376.959C430.525 376.726 424.75 376.668 418.975 376.668C413.2 376.668 403.808 378.826 395.875 387.518C387.912 396.18 365.541 417.151 365.541 459.822C365.541 502.463 396.575 543.676 400.92 549.48C405.266 555.255 462.025 642.813 548.97 680.35C569.679 689.275 585.808 694.613 598.378 698.58C619.145 705.2 638.045 704.267 652.978 702.021C669.603 699.542 704.253 681.05 711.487 660.809C718.691 640.567 718.691 623.213 716.532 619.596C714.374 615.98 708.599 613.821 699.907 609.476H699.937ZM541.795 825.396H541.679C490.037 825.405 439.344 811.523 394.912 785.204L384.412 778.963L275.271 807.604L304.408 701.205L297.554 690.296C268.683 644.34 253.404 591.152 253.483 536.88C253.542 377.922 382.866 248.597 541.912 248.597C618.912 248.597 691.303 278.639 745.728 333.122C772.573 359.855 793.849 391.647 808.328 426.656C822.806 461.666 830.199 499.199 830.078 537.084C830.02 696.042 700.695 825.396 541.795 825.396V825.396ZM787.145 291.734C755.009 259.386 716.773 233.738 674.652 216.274C632.531 198.811 587.363 189.881 541.766 190.001C350.608 190.001 194.975 345.605 194.917 536.851C194.828 597.714 210.794 657.524 241.204 710.246L192 890L375.866 841.758C426.729 869.47 483.727 883.99 541.649 883.992H541.795C732.953 883.992 888.586 728.388 888.645 537.113C888.786 491.534 879.888 446.379 862.466 404.26C845.043 362.142 819.443 323.896 787.145 291.734" fill="white"/>
</svg>
