<svg width="200" height="200" viewBox="0 0 200 200" fill="none" xmlns="http://www.w3.org/2000/svg">
<path fill-rule="evenodd" clip-rule="evenodd" d="M145.125 119.85C142.641 118.608 130.466 112.625 128.2 111.792C125.933 110.967 124.283 110.558 122.625 113.042C120.975 115.508 116.233 121.092 114.791 122.742C113.341 124.4 111.9 124.6 109.425 123.367C106.95 122.117 98.9665 119.508 89.5082 111.075C82.1499 104.509 77.1749 96.4002 75.7332 93.9169C74.2915 91.4419 75.5749 90.1002 76.8165 88.8669C77.9332 87.7585 79.2915 85.9752 80.5332 84.5335C81.7749 83.0835 82.1832 82.0502 83.0082 80.3919C83.8415 78.7419 83.4249 77.3002 82.7999 76.0585C82.1832 74.8169 77.2332 62.6252 75.1665 57.6669C73.1582 52.8419 71.1166 53.5003 69.5999 53.4169C68.1499 53.3503 66.4999 53.3336 64.8499 53.3336C63.1999 53.3336 60.5166 53.9503 58.2499 56.4336C55.9749 58.9086 49.5833 64.9002 49.5833 77.0919C49.5833 89.2752 58.4499 101.05 59.6916 102.709C60.9332 104.359 77.1499 129.375 101.992 140.1C107.908 142.65 112.516 144.175 116.108 145.308C122.041 147.2 127.441 146.933 131.708 146.292C136.458 145.583 146.358 140.3 148.425 134.517C150.483 128.733 150.483 123.775 149.866 122.742C149.25 121.708 147.6 121.092 145.116 119.85H145.125ZM99.9415 181.542H99.9082C85.1534 181.544 70.6696 177.578 57.9749 170.058L54.9749 168.275L23.7916 176.458L32.1166 146.058L30.1583 142.942C21.9094 129.811 17.5441 114.615 17.5666 99.1085C17.5833 53.6919 54.5332 16.742 99.9748 16.742C121.975 16.742 142.658 25.3253 158.208 40.8919C165.878 48.5301 171.957 57.6133 176.094 67.616C180.23 77.6188 182.343 88.3425 182.308 99.1668C182.291 144.583 145.341 181.542 99.9415 181.542V181.542ZM170.041 29.067C160.86 19.8247 149.935 12.4965 137.901 7.507C125.866 2.51754 112.961 -0.0339687 99.9332 0.000341479C45.3166 0.000341479 0.849999 44.4586 0.833332 99.1002C0.808024 116.49 5.36978 133.578 14.0583 148.642L0 200L52.5332 186.217C67.0655 194.134 83.3506 198.283 99.8998 198.283H99.9415C154.558 198.283 199.025 153.825 199.041 99.1752C199.082 86.1525 196.539 73.2511 191.562 61.2172C186.584 49.1833 179.269 38.2559 170.041 29.067" fill="#FEFEFE"/>
</svg>
